<svg width="420" height="325" version="1.1" viewBox="0 0 111.13 85.992" xmlns="http://www.w3.org/2000/svg">
 <g transform="translate(-12.169 -24.739)" stroke="#000" stroke-linecap="round" stroke-width="2.6458">
  <path d="m95.003 85.195h7.9155a18.087 18.087 0 0 0 0.40465 4e-3 18.087 18.087 0 0 0 0.0677-4e-3h0.0654v-4e-3a18.087 18.087 0 0 0 17.954-18.079 18.087 18.087 0 0 0-18.087-18.087 18.087 18.087 0 0 0-7.352 1.5612 28.596 28.596 0 0 0-28.242-24.107 28.596 28.596 0 0 0-27.581 21.045 19.427 19.427 0 0 0-6.6648-1.1793 19.427 19.427 0 0 0-19.427 19.427 19.427 19.427 0 0 0 19.427 19.427 19.427 19.427 0 0 0 0.41936-4e-3h6.5611" fill="#999"/>
  <path d="m90.544 107.01-15.889-15.889-2.6e-4 -2.7e-4m-15.785-15.785-2.5e-4 -2.6e-4 -15.68-15.68m0 47.354 16.189-16.189m15.805-15.805 15.359-15.359m-12.189 23.157a11.177 11.177 0 0 1-11.177 11.177 11.177 11.177 0 0 1-11.177-11.177 11.177 11.177 0 0 1 11.177-11.177 11.177 11.177 0 0 1 11.177 11.177zm15 0a26.177 26.177 0 0 1-26.177 26.177 26.177 26.177 0 0 1-26.177-26.177 26.177 26.177 0 0 1 26.177-26.177 26.177 26.177 0 0 1 26.177 26.177zm-7.5002 0a18.677 18.677 0 0 1-18.677 18.677 18.677 18.677 0 0 1-18.677-18.677 18.677 18.677 0 0 1 18.677-18.677 18.677 18.677 0 0 1 18.677 18.677z" fill="#ccc" stroke-linejoin="round"/>
  <path d="m65.865 106.49 2.3e-4 -20.038-7.3643 0.36876 9.9905-27.686-2.7e-4 20.038 7.3643-0.36875z" fill="#fc0" stroke-linejoin="round"/>
 </g>
</svg>
